<svg xmlns="http://www.w3.org/2000/svg" width="960" height="540" viewBox="0 0 960 540" role="img" aria-label="Illustrative chart">
  <rect width="960" height="540" fill="#f8fafc"/>
  <rect x="64" y="64" width="832" height="412" rx="12" fill="#ffffff" stroke="#e2e8f0"/>
  <text x="96" y="112" font-family="system-ui,sans-serif" font-size="14" fill="#475569">Engagement pulse (demo)</text>
  <path d="M120 380 L240 260 L360 310 L480 220 L600 260 L720 190 L840 240" fill="none" stroke="#1DA1F2" stroke-width="4" stroke-linecap="round"/>
  <circle cx="120" cy="380" r="5" fill="#1DA1F2"/>
  <circle cx="240" cy="260" r="5" fill="#1DA1F2"/>
  <circle cx="360" cy="310" r="5" fill="#1DA1F2"/>
  <circle cx="480" cy="220" r="5" fill="#1DA1F2"/>
  <circle cx="600" cy="260" r="5" fill="#1DA1F2"/>
  <circle cx="720" cy="190" r="5" fill="#1DA1F2"/>
  <circle cx="840" cy="240" r="5" fill="#1DA1F2"/>
  <g fill="#cbd5e1">
    <rect x="120" y="400" width="56" height="44" rx="6"/>
    <rect x="220" y="360" width="56" height="84" rx="6"/>
    <rect x="320" y="388" width="56" height="56" rx="6"/>
    <rect x="420" y="340" width="56" height="104" rx="6"/>
    <rect x="520" y="372" width="56" height="72" rx="6"/>
  </g>
  <rect x="140" y="430" width="40" height="14" rx="4" fill="#1DA1F2" opacity="0.85"/>
</svg>
