<svg width="256" height="256" viewBox="0 0 256 256" xmlns="http://www.w3.org/2000/svg">
  <defs>
    <linearGradient id="bg" x1="0" y1="0" x2="1" y2="1">
      <stop offset="0" stop-color="#0EA5E9"/>
      <stop offset="1" stop-color="#2563EB"/>
    </linearGradient>
    <radialGradient id="glow" cx="35%" cy="30%" r="70%">
      <stop offset="0" stop-color="#FFFFFF" stop-opacity="0.45"/>
      <stop offset="1" stop-color="#FFFFFF" stop-opacity="0"/>
    </radialGradient>
  </defs>
  <rect width="256" height="256" rx="56" fill="url(#bg)"/>
  <circle cx="92" cy="88" r="92" fill="url(#glow)"/>
  <g opacity="0.9">
    <path d="M128 138c26 0 47-21 47-47s-21-47-47-47-47 21-47 47 21 47 47 47Z" fill="#E0F2FE"/>
    <path d="M56 220c0-40 32-72 72-72s72 32 72 72" fill="#BAE6FD"/>
  </g>
  <g opacity="0.7">
    <path d="M84 98c10-14 24-22 44-22 21 0 36 9 46 23" stroke="#0284C7" stroke-width="10" stroke-linecap="round" fill="none"/>
    <path d="M104 120c6 6 14 10 24 10 11 0 19-4 25-10" stroke="#0284C7" stroke-width="10" stroke-linecap="round" fill="none"/>
  </g>
</svg>
